<svg width="121" height="113" viewBox="0 0 121 113" fill="none" xmlns="http://www.w3.org/2000/svg">
<path d="M21.2783 99.1229L17.2081 99.6949C15.0205 100.002 12.9978 98.4782 12.6904 96.2905L1.55653 17.0691C1.24908 14.8815 2.77327 12.8588 4.96091 12.5513L83.1921 1.55666C85.3797 1.24921 87.4024 2.7734 87.7098 4.96104C87.7098 4.96104 88.4217 10.0264 88.6666 11.7688" stroke="#7C3AED" stroke-width="2.5" stroke-linecap="round"/>
<path d="M89.5 16.3796L90 19.5" stroke="#7C3AED" stroke-width="2.5" stroke-linecap="round"/>
<path d="M37.8455 18.0409L116.413 26.2987C117.923 26.4574 119.019 27.8106 118.86 29.321L110.498 108.883C110.339 110.393 108.986 111.489 107.476 111.33L28.9083 103.073C27.3978 102.914 26.3021 101.561 26.4608 100.05L34.8231 20.4884C34.9818 18.9779 36.335 17.8821 37.8455 18.0409Z" stroke="#7C3AED" stroke-width="2.5"/>
<path fill-rule="evenodd" clip-rule="evenodd" d="M44.7409 69.8777L54.5383 63.2697C56.172 62.1679 58.3647 62.4199 59.7057 63.8636L66.8794 71.5866C67.2374 71.9721 67.8329 72.0142 68.2416 71.683L83.5814 59.2534C85.4292 57.7561 88.1675 58.1922 89.4587 60.1894L99.4396 75.6268L100.873 78.0187L100.187 86.1434C100.139 86.704 99.6388 87.1153 99.0797 87.0531L42.117 80.7243C41.5753 80.6642 41.1816 80.1814 41.2316 79.6388L41.9865 71.4401L44.7409 69.8777Z" fill="#7C3AED" fill-opacity="0.18"/>
<path d="M44.8607 27.8279L107.516 34.4131C108.477 34.5142 109.174 35.3753 109.073 36.3365L103.533 89.0461C103.432 90.0074 102.571 90.7047 101.61 90.6036L38.9549 84.0183C37.9937 83.9173 37.2963 83.0562 37.3974 82.095L42.9374 29.3853C43.0384 28.4241 43.8995 27.7268 44.8607 27.8279Z" stroke="#7C3AED" stroke-width="2.5"/>
<circle cx="57.0333" cy="45.9495" r="6" transform="rotate(6 57.0333 45.9495)" stroke="#7C3AED" stroke-width="2.5"/>
<path d="M42.7303 71.4249C46.6666 68.7065 54.5394 63.2698 54.5394 63.2698C56.1731 62.168 58.3658 62.42 59.7068 63.8637L66.8805 71.5867C67.2385 71.9722 67.834 72.0143 68.2427 71.6831L83.5825 59.2535C85.2989 57.8627 87.8178 58.1267 89.2086 59.8431C89.2984 59.954 89.3823 60.0696 89.4598 60.1895C89.4598 60.1895 98.4283 74.4203 100.524 77.7455" stroke="#7C3AED" stroke-width="2.5" stroke-linecap="round"/>
</svg>
