<svg width="650" height="505" viewBox="0 0 650 505" fill="none" xmlns="http://www.w3.org/2000/svg">
<g clip-path="url(#clip0_119_490)">
<path d="M649.588 503.577H0C7.118 482.571 20.262 464.752 38.792 459.466C65.898 451.742 94.584 472.979 121.629 464.993C136.995 460.462 149.092 447.255 161.803 436.293C209.759 394.917 275.473 382.688 332.225 404.586C361.886 416.028 388.914 436.038 419.299 444.544C458.591 455.544 499.68 446.423 540.086 444.919C579.435 443.451 635.818 462.01 649.588 503.577Z" fill="#F3F5FD" fill-opacity="0.3"/>
<path d="M577.511 499.554C590.059 495.666 602.233 490.584 613.326 476.362C615.602 473.447 617.741 469.714 616.493 466.226C615.555 463.601 612.839 461.919 610.08 461.489C609.053 461.34 608.013 461.311 606.98 461.404C606.98 461.404 606.97 461.404 606.968 461.404C605.376 461.567 603.803 461.875 602.268 462.326L601.83 462.45C594.508 464.531 587.533 467.68 581.13 471.797C580.55 472.167 579.862 472.33 579.177 472.259C578.493 472.188 577.853 471.888 577.361 471.407C576.868 470.926 576.554 470.293 576.467 469.611C576.38 468.928 576.527 468.236 576.884 467.648C577.537 466.582 578.298 465.585 579.153 464.672C580.414 463.353 581.795 462.155 583.279 461.093C585.252 459.654 587.357 458.371 589.416 457.055C597.073 452.179 604.326 446.698 611.108 440.663C615.949 436.351 620.682 431.563 622.983 425.504C624.04 422.716 624.521 419.504 623.26 416.804C621.179 412.367 615.286 411.126 610.467 412.046C602.022 413.664 595.275 419.854 589.293 426.024C584.332 431.151 578.773 436.824 571.645 437.143C570.43 437.258 569.208 437.015 568.131 436.443C566.098 435.211 565.576 432.358 566.3 430.092C567.024 427.826 568.7 426.016 570.321 424.278C579.729 414.184 588.987 403.684 595.097 391.316C601.207 378.948 603.912 364.346 599.667 351.216C598.539 347.318 596.467 343.758 593.634 340.853C592.205 339.417 590.477 338.314 588.574 337.623C586.67 336.931 584.637 336.668 582.62 336.853C577.164 337.572 573.055 342.177 570.29 346.931C560.79 363.247 561.367 383.238 558.69 401.931C557.941 407.163 556.85 412.531 553.736 416.836C553.448 417.25 553.075 417.598 552.642 417.856C550.078 419.341 547.776 416.346 546.813 413.805C543.013 403.752 542.061 392.255 535.255 383.934C532.655 380.767 528.982 378.119 524.888 378.145C519.888 378.179 515.604 382.357 514.144 387.145C512.684 391.933 513.558 397.127 515.122 401.878C518.022 410.688 523.227 418.601 529.358 425.559C532.591 429.232 536.245 432.943 537.215 437.735C537.512 439.364 537.387 441.041 536.854 442.608C536.32 444.175 535.395 445.58 534.166 446.689C533.591 447.189 532.922 447.569 532.197 447.806C531.473 448.042 530.709 448.131 529.95 448.067C528.32 447.797 526.766 447.183 525.392 446.267C524.792 445.925 524.192 445.578 523.582 445.238C521.191 443.877 518.8 442.515 516.409 441.15C510.331 437.682 502.991 434.138 496.659 437.125C495.093 437.924 493.717 439.048 492.622 440.424C491.528 441.799 490.741 443.393 490.315 445.098C489.424 448.224 489.424 451.536 490.315 454.662C492.201 461.162 504.089 479.262 508.992 483.923C514.721 489.351 534.579 512.86 577.511 499.554Z" fill="#C0A6ED"/>
<path d="M111.502 348.071L70.8008 502.809L76.6034 504.335L117.305 349.598L111.502 348.071Z" fill="#AF86F0"/>
<path d="M183.632 348.369L177.704 349.298L201.966 504.038L207.894 503.108L183.632 348.369Z" fill="#AF86F0"/>
<path d="M106.056 200.4C106.056 200.4 56.4912 197.269 56.4912 240.574C56.4912 283.879 63.7912 344.4 100.317 351.182C136.843 357.964 190.798 355.92 203.325 353.797C218.716 351.188 225.425 315.486 204.925 313.097C146.751 306.317 174.925 205.1 106.056 200.4Z" fill="#AF86F0"/>
<path d="M211.276 474.431L209.39 498.89" stroke="#E98862" stroke-width="21" stroke-miterlimit="10"/>
<path d="M246.465 503.39C247.554 503.385 248.597 502.947 249.364 502.174C250.131 501.4 250.559 500.353 250.554 499.264C250.554 499.164 250.554 499.064 250.541 498.964C250.48 498.184 250.198 497.437 249.727 496.812C249.256 496.187 248.616 495.709 247.883 495.435L223.44 487.248C222.966 487.091 222.465 487.039 221.969 487.094C221.473 487.149 220.995 487.311 220.568 487.568C217.208 489.899 213.188 491.091 209.1 490.968C205.916 490.742 202.86 489.625 200.28 487.745C200.053 487.559 199.778 487.441 199.487 487.406C199.196 487.37 198.901 487.418 198.636 487.544C198.371 487.669 198.147 487.868 197.99 488.116C197.834 488.364 197.751 488.652 197.752 488.945V500.9C197.752 501.61 198.034 502.291 198.536 502.794C199.039 503.296 199.72 503.578 200.43 503.578H200.441L246.465 503.39Z" fill="#AF86F0"/>
<path d="M294.58 474.431L298.694 498.89" stroke="#E98862" stroke-width="21" stroke-miterlimit="10"/>
<path d="M315.634 478.046L269.526 300.661C268.495 296.697 266.179 293.188 262.94 290.682C259.7 288.177 255.721 286.817 251.626 286.816H150.578V286.881H93.9688V304.229C93.9686 309.231 94.9536 314.183 96.8676 318.804C98.7815 323.425 101.587 327.624 105.123 331.161C108.66 334.698 112.859 337.503 117.48 339.417C122.1 341.332 127.053 342.317 132.055 342.317H159.665V342.426H207.865L194.593 483.54L231.431 487L244.264 350.545L279.824 487.35L315.634 478.046Z" fill="#262626"/>
<path d="M238.644 202.1C238.644 202.1 238.794 190.089 247.379 190.714C252.795 191.108 278.53 189.914 278.913 192.258C279.861 198.058 256.321 199.476 254.185 204.88L238.644 202.1Z" fill="#E98862"/>
<path d="M244.339 191.1C244.339 191.1 256.288 187.2 259.225 187.9C261.825 188.518 256.405 192.75 256.405 192.75L244.339 191.1Z" fill="#E98862"/>
<path d="M213.963 254.8L256.6 205.17L238.226 194.838L204.088 233.245L177.388 185.454C174.862 177.901 169.108 172.841 157.368 172.335C156.738 172.315 155.728 172.285 154.428 172.265C154.168 177.765 120.098 177.745 119.378 172.135C109.758 172.145 101.858 175.105 97.298 179.665C81.548 195.415 100.878 222.255 100.878 243.255C100.878 264.255 91.378 273.675 92.078 284.455C93.178 301.395 175.508 297.395 179.698 287.765C182.508 281.313 179.785 276.465 177.642 264.928H213.966L213.963 254.8ZM175.635 239.251C175.676 235.718 175.949 232.021 176.324 228.259L184.624 243.119H175.638C175.625 241.868 175.62 240.59 175.638 239.251H175.635Z" fill="#7C3AED"/>
<path d="M154.425 172.265C154.165 177.765 151.165 185.855 141.945 186.455C129.635 187.275 120.095 177.745 119.375 172.135H119.415C131.515 172.135 147.355 172.155 154.425 172.265Z" fill="#E98862"/>
<path d="M332.769 503.39C333.858 503.385 334.901 502.947 335.668 502.173C336.435 501.399 336.863 500.352 336.858 499.262C336.858 499.162 336.858 499.062 336.845 498.962C336.784 498.182 336.501 497.435 336.03 496.81C335.559 496.185 334.919 495.707 334.186 495.433L309.744 487.246C309.27 487.089 308.768 487.037 308.272 487.092C307.776 487.147 307.298 487.309 306.871 487.566C303.511 489.897 299.491 491.089 295.404 490.966C292.219 490.74 289.163 489.623 286.583 487.743C286.356 487.557 286.081 487.44 285.79 487.404C285.499 487.369 285.204 487.417 284.939 487.543C284.674 487.668 284.451 487.867 284.294 488.115C284.138 488.363 284.055 488.65 284.056 488.943V500.9C284.056 501.61 284.338 502.291 284.84 502.794C285.342 503.296 286.023 503.578 286.734 503.578H286.745L332.769 503.39Z" fill="#AF86F0"/>
<path d="M46.0697 274.62H36.6787V503.577H46.0697V274.62Z" fill="#DEE8F5"/>
<path d="M499.043 274.62H489.652V503.577H499.043V274.62Z" fill="#AF86F0"/>
<path d="M499.044 271.751H414.349V487.922H499.044V271.751Z" fill="#AF86F0"/>
<path d="M406.83 472.266H397.439V503.577H406.83V472.266Z" fill="#AF86F0"/>
<path d="M512.027 265.164H23.6953V278.077H512.027V265.164Z" fill="#DEE8F5"/>
<path d="M419.043 274.62H409.652V503.577H419.043V274.62Z" fill="#DEE8F5"/>
<path d="M326.83 274.62H317.439V503.577H326.83V274.62Z" fill="#DEE8F5"/>
<path d="M414.349 278.094H322.136V487.921H414.349V278.094Z" fill="#DEE8F5"/>
<path d="M155.667 151.121C160.96 151.121 165.251 146.83 165.251 141.537C165.251 136.244 160.96 131.953 155.667 131.953C150.374 131.953 146.083 136.244 146.083 141.537C146.083 146.83 150.374 151.121 155.667 151.121Z" fill="#DEE8F5"/>
<path d="M157.335 142.655C157.693 142.585 158.025 142.419 158.295 142.175C158.565 141.93 158.763 141.617 158.868 141.268C159.118 140.438 161.76 120.907 154.113 109.139C152.893 107.114 151.208 105.408 149.199 104.162C147.189 102.917 144.912 102.167 142.555 101.975C142.294 101.947 142.029 101.971 141.777 102.046C141.525 102.121 141.29 102.244 141.085 102.41C140.881 102.576 140.711 102.78 140.586 103.011C140.461 103.243 140.382 103.496 140.355 103.758C140.242 104.858 141.04 104.841 142.139 104.958C147.471 105.51 148.278 107.604 150.781 111.358C157.529 121.488 155.09 139.93 155.035 140.115C154.936 140.445 154.923 140.796 154.999 141.132C155.074 141.469 155.236 141.78 155.467 142.036C155.699 142.291 155.992 142.483 156.32 142.592C156.647 142.7 156.997 142.722 157.335 142.656V142.655Z" fill="#AF86F0"/>
<path d="M153.191 150.895C158.485 150.895 162.775 146.604 162.775 141.311C162.775 136.018 158.485 131.727 153.191 131.727C147.898 131.727 143.607 136.018 143.607 141.311C143.607 146.604 147.898 150.895 153.191 150.895Z" fill="#AF86F0"/>
<path d="M122.841 177.812C122.841 177.812 130.573 173.712 128.847 152.656L144.823 149.693C144.823 149.693 143.023 168.572 151.11 174.566L122.841 177.812Z" fill="#E98862"/>
<g opacity="0.15">
<path d="M147.837 170.619L134.564 160.465L144.989 160.357C145.291 163.925 146.257 167.406 147.837 170.619Z" fill="black"/>
</g>
<path d="M119.782 144.491C120.888 150.879 124.374 156.929 130.009 158.991C136.699 161.441 141.654 161.607 149.367 161.607C159.892 161.607 159.544 150.63 159.84 139.569C160.14 128.463 159.253 116.55 155.093 112.68C146.793 104.956 122.42 109.848 119.456 122.768C117.923 129.451 118.729 138.41 119.782 144.491Z" fill="#E98862"/>
<path d="M144.481 139.57C145.281 139.57 145.93 138.921 145.93 138.121C145.93 137.321 145.281 136.672 144.481 136.672C143.681 136.672 143.032 137.321 143.032 138.121C143.032 138.921 143.681 139.57 144.481 139.57Z" fill="#0F1011"/>
<path d="M155.913 138.633C156.713 138.633 157.362 137.984 157.362 137.184C157.362 136.384 156.713 135.735 155.913 135.735C155.113 135.735 154.464 136.384 154.464 137.184C154.464 137.984 155.113 138.633 155.913 138.633Z" fill="#0F1011"/>
<path d="M158.423 134.1H158.415L154.577 134.053C154.488 134.052 154.4 134.033 154.317 133.998C154.235 133.963 154.161 133.912 154.098 133.848C154.036 133.784 153.986 133.708 153.953 133.625C153.92 133.542 153.903 133.453 153.904 133.364C153.904 133.274 153.922 133.185 153.957 133.103C153.992 133.02 154.043 132.945 154.107 132.882C154.171 132.82 154.247 132.77 154.331 132.737C154.414 132.705 154.504 132.689 154.593 132.691L158.432 132.739C158.608 132.747 158.774 132.822 158.896 132.95C159.017 133.078 159.084 133.248 159.083 133.424C159.082 133.6 159.013 133.769 158.89 133.895C158.767 134.021 158.599 134.094 158.423 134.1Z" fill="#0F1011"/>
<path d="M141.354 135.5C141.187 135.5 141.027 135.438 140.902 135.328C140.778 135.217 140.698 135.064 140.679 134.899C140.659 134.733 140.701 134.567 140.796 134.43C140.891 134.293 141.033 134.196 141.195 134.157L144.98 133.246C145.156 133.204 145.341 133.233 145.495 133.327C145.649 133.422 145.759 133.574 145.802 133.749C145.844 133.925 145.814 134.11 145.72 134.264C145.626 134.418 145.474 134.529 145.298 134.571L141.514 135.481C141.462 135.494 141.408 135.5 141.354 135.5Z" fill="#0F1011"/>
<path d="M131.62 122.879C132.749 144.447 130.638 154.473 129.465 158.229C129.388 158.477 129.256 158.703 129.078 158.892C128.9 159.081 128.682 159.228 128.439 159.32C128.196 159.412 127.936 159.448 127.678 159.425C127.419 159.401 127.169 159.32 126.947 159.186C123.19 156.954 114.653 149.996 111.773 131.802C109.192 115.502 121.331 108.308 129.35 105.909C136.263 103.841 145.633 104.24 153.09 108.99C162.481 114.973 161.09 127.283 161.09 127.283C149.697 127.808 125.351 128.819 125.351 128.819" fill="#0F1011"/>
<path d="M136.944 141.667C137.066 143.285 136.543 144.886 135.489 146.119C134.435 147.353 132.936 148.12 131.319 148.252C129.702 148.384 128.098 147.871 126.857 146.824C125.617 145.778 124.841 144.283 124.699 142.667C124.619 141.86 124.703 141.046 124.944 140.272C125.186 139.498 125.58 138.78 126.105 138.162C126.629 137.544 127.273 137.038 127.997 136.674C128.721 136.309 129.511 136.094 130.32 136.042C134.7 135.9 136.666 138.285 136.944 141.667Z" fill="#E98862"/>
<g opacity="0.15">
<path d="M150.914 146.158C150.795 146.158 150.679 146.115 150.588 146.037C150.497 145.959 150.437 145.851 150.42 145.732C150.402 145.614 150.427 145.493 150.491 145.392C150.555 145.29 150.653 145.215 150.767 145.18L153.714 144.275L151.652 139.685C151.598 139.564 151.594 139.426 151.641 139.302C151.688 139.178 151.782 139.078 151.903 139.023C152.024 138.969 152.161 138.965 152.286 139.012C152.41 139.059 152.51 139.153 152.564 139.274L154.858 144.381C154.887 144.446 154.902 144.516 154.902 144.587C154.902 144.657 154.887 144.728 154.858 144.792C154.829 144.857 154.786 144.914 154.733 144.961C154.68 145.008 154.617 145.043 154.549 145.064L151.061 146.136C151.014 146.15 150.964 146.158 150.914 146.158Z" fill="black"/>
</g>
<path d="M145.152 149.533C145.152 149.533 150.5 150.097 154.252 148.787C154.252 148.787 154.223 152.309 149.99 152.656C145.757 153.003 145.152 149.533 145.152 149.533Z" fill="white"/>
<path d="M120.815 141.507C120.843 141.501 120.873 141.496 120.901 141.488C121.416 141.364 121.861 141.04 122.138 140.587C122.415 140.135 122.501 139.591 122.377 139.076C122.338 138.912 118.511 122.51 125.931 112.587C129.431 107.906 134.985 105.342 142.452 104.962C143.54 104.91 144.404 104.968 144.352 103.862C144.302 103.34 144.059 102.856 143.67 102.505C143.282 102.153 142.776 101.96 142.252 101.962C135.378 101.447 126.967 104.514 122.721 110.201C114.179 121.643 118.313 139.265 118.493 140.01C118.613 140.51 118.921 140.945 119.354 141.224C119.786 141.503 120.309 141.604 120.815 141.507Z" fill="#AF86F0"/>
<path d="M123.661 151.472C128.954 151.472 133.245 147.181 133.245 141.888C133.245 136.595 128.954 132.304 123.661 132.304C118.368 132.304 114.077 136.595 114.077 141.888C114.077 147.181 118.368 151.472 123.661 151.472Z" fill="#AF86F0"/>
<path d="M120.716 151.76C126.009 151.76 130.3 147.469 130.3 142.176C130.3 136.883 126.009 132.592 120.716 132.592C115.423 132.592 111.132 136.883 111.132 142.176C111.132 147.469 115.423 151.76 120.716 151.76Z" fill="#DEE8F5"/>
<path d="M121.874 147.235C122.336 149.334 122.933 151.401 123.661 153.423C124.817 155.338 141.201 154.474 141.201 154.474" stroke="#DEE8F5" stroke-width="3" stroke-linecap="round" stroke-linejoin="round"/>
<path d="M140.85 156.851H142.881C144.176 156.851 145.226 155.801 145.226 154.506C145.226 153.211 144.176 152.161 142.881 152.161H140.85C139.554 152.161 138.505 153.211 138.505 154.506C138.505 155.801 139.554 156.851 140.85 156.851Z" fill="#AF86F0"/>
<path d="M490.033 198.562C544.864 198.562 589.314 154.112 589.314 99.281C589.314 44.4496 544.864 0 490.033 0C435.202 0 390.752 44.4496 390.752 99.281C390.752 154.112 435.202 198.562 490.033 198.562Z" fill="#DEE8F5" fill-opacity="0.3"/>
<path d="M529.951 59.4762C529.951 59.4762 531.109 48.2642 540.962 48.2642C552.662 48.2642 544.673 80.4132 539.553 100.073C539.007 102.175 538.911 104.369 539.27 106.511C539.63 108.653 540.437 110.695 541.64 112.504C542.842 114.313 544.412 115.847 546.248 117.008C548.084 118.169 550.144 118.929 552.294 119.239C554.366 119.541 556.477 119.418 558.5 118.878C560.523 118.338 562.415 117.392 564.062 116.099C565.708 114.805 567.074 113.19 568.076 111.352C569.079 109.513 569.697 107.491 569.894 105.406C572.263 80.1972 571.711 33.6832 545.194 34.5792C527.964 35.1612 527.964 52.3372 527.964 52.3372L529.951 59.4762Z" fill="#0F1011"/>
<path d="M529.952 98.0191C529.952 98.0191 522.824 94.2391 524.415 74.8301L509.688 72.1001C509.688 72.1001 511.343 89.5001 503.888 95.0271L529.952 98.0191Z" fill="#E98862"/>
<g opacity="0.15">
<path d="M506.909 91.3882L519.144 82.0282L509.535 81.9282C509.257 85.2177 508.367 88.4261 506.909 91.3882Z" fill="black"/>
</g>
<path d="M532.771 67.3C531.752 73.189 528.538 78.765 523.344 80.668C517.682 82.9162 511.556 83.745 505.501 83.082C489.379 81.76 492.568 45.102 500.222 37.982C507.876 30.862 530.34 35.371 533.073 47.282C534.485 53.439 533.742 61.7 532.771 67.3Z" fill="#E98862"/>
<path d="M509.708 62.7662C510.445 62.7662 511.043 62.1685 511.043 61.4312C511.043 60.6939 510.445 60.0962 509.708 60.0962C508.971 60.0962 508.373 60.6939 508.373 61.4312C508.373 62.1685 508.971 62.7662 509.708 62.7662Z" fill="#0F1011"/>
<path d="M499.171 61.9022C499.908 61.9022 500.506 61.3045 500.506 60.5672C500.506 59.8299 499.908 59.2322 499.171 59.2322C498.434 59.2322 497.836 59.8299 497.836 60.5672C497.836 61.3045 498.434 61.9022 499.171 61.9022Z" fill="#0F1011"/>
<path d="M496.857 57.7211H496.865L500.403 57.6771C500.565 57.6697 500.718 57.5998 500.83 57.4821C500.941 57.3644 501.003 57.208 501.002 57.0458C501.001 56.8835 500.937 56.7279 500.824 56.6117C500.711 56.4954 500.557 56.4275 500.395 56.4221H500.387L496.848 56.4661C496.686 56.4737 496.533 56.5436 496.421 56.6614C496.31 56.7792 496.248 56.9357 496.249 57.0979C496.25 57.2602 496.314 57.4158 496.427 57.5319C496.541 57.6481 496.695 57.7159 496.857 57.7211Z" fill="#0F1011"/>
<path d="M512.592 59.0112C512.745 59.0104 512.893 58.9536 513.007 58.8515C513.122 58.7494 513.195 58.609 513.213 58.4568C513.23 58.3046 513.192 58.151 513.105 58.0251C513.017 57.8992 512.887 57.8096 512.738 57.7732L509.249 56.9342C509.169 56.9149 509.086 56.9116 509.004 56.9244C508.923 56.9372 508.845 56.9659 508.775 57.0089C508.704 57.0519 508.643 57.1083 508.595 57.175C508.546 57.2416 508.511 57.3171 508.492 57.3972C508.473 57.4773 508.469 57.5604 508.482 57.6418C508.495 57.7232 508.524 57.8013 508.567 57.8716C508.61 57.9419 508.666 58.003 508.733 58.0515C508.799 58.1 508.875 58.1349 508.955 58.1542L512.444 58.9942C512.493 59.0052 512.542 59.0109 512.592 59.0112Z" fill="#0F1011"/>
<path d="M509.09 71.9512C509.09 71.9512 504.16 72.4712 500.704 71.2632C500.704 71.2632 500.732 74.5102 504.633 74.8302C508.534 75.1502 509.09 71.9512 509.09 71.9512Z" fill="white"/>
<path d="M521.923 52.0461C520.517 78.9131 524.205 81.6871 524.205 81.6871C524.205 81.6871 537.628 73.6131 539.381 57.4781C541.024 42.3531 529.881 33.4221 522.348 31.7381C493.73 25.3381 490.572 51.3931 490.572 51.3931C504.895 55.0751 525.02 52.5831 525.02 52.5831" fill="#0F1011"/>
<path d="M516.657 64.7001C516.592 65.4433 516.675 66.192 516.9 66.9032C517.126 67.6144 517.49 68.274 517.971 68.8441C518.452 69.4143 519.041 69.8837 519.704 70.2254C520.367 70.5671 521.092 70.7744 521.835 70.8354C522.579 70.8963 523.327 70.8097 524.037 70.5805C524.747 70.3513 525.405 69.9841 525.972 69.4999C526.54 69.0157 527.006 68.4242 527.344 67.7592C527.683 67.0942 527.886 66.3689 527.943 65.6251C528.017 64.8816 527.94 64.1308 527.718 63.4176C527.495 62.7043 527.132 62.0431 526.648 61.4733C526.165 60.9036 525.572 60.4369 524.904 60.1012C524.237 59.7655 523.509 59.5675 522.763 59.5191C518.727 59.3871 516.912 61.5831 516.657 64.7001Z" fill="#E98862"/>
<g opacity="0.15">
<path d="M503.779 68.8401C503.888 68.839 503.994 68.799 504.077 68.7271C504.159 68.6553 504.214 68.5563 504.23 68.448C504.246 68.3397 504.224 68.2291 504.166 68.1361C504.108 68.043 504.019 67.9735 503.915 67.9401L501.2 67.1001L503.1 62.8681C503.146 62.7573 503.147 62.6328 503.102 62.5213C503.058 62.4098 502.972 62.3199 502.863 62.2708C502.753 62.2217 502.629 62.2173 502.516 62.2584C502.403 62.2995 502.311 62.383 502.259 62.4911L500.143 67.2001C500.116 67.2597 500.102 67.3243 500.103 67.3896C500.103 67.4548 500.117 67.5194 500.144 67.5788C500.171 67.6383 500.21 67.6913 500.259 67.7345C500.308 67.7776 500.365 67.8099 500.428 67.8291L503.644 68.8161C503.687 68.8309 503.733 68.839 503.779 68.8401Z" fill="black"/>
</g>
<path d="M538.8 50.7721C538.899 50.7722 538.998 50.7659 539.095 50.7531C539.396 50.7154 539.686 50.6186 539.949 50.4685C540.212 50.3184 540.443 50.1178 540.628 49.8783C540.813 49.6387 540.949 49.365 541.028 49.0727C541.108 48.7805 541.128 48.4754 541.089 48.1751C540.424 43.9274 538.35 40.0268 535.2 37.1001C534.972 36.9012 534.707 36.7492 534.421 36.6527C534.134 36.5563 533.831 36.5172 533.529 36.5378C533.227 36.5584 532.932 36.6383 532.661 36.7729C532.39 36.9075 532.148 37.0941 531.949 37.3221C531.751 37.5502 531.599 37.8151 531.502 38.1019C531.406 38.3887 531.367 38.6917 531.387 38.9936C531.408 39.2955 531.488 39.5904 531.622 39.8614C531.757 40.1324 531.943 40.3742 532.171 40.5731C534.465 42.7601 535.988 45.6316 536.512 48.7571C536.583 49.3139 536.855 49.8257 537.276 50.1967C537.697 50.5676 538.239 50.7722 538.8 50.7721Z" fill="#262626"/>
<path d="M432.672 106.828C432.672 106.828 431.198 95.8541 423.412 97.3811C418.5 98.3451 394.818 100.113 394.729 102.303C394.507 107.718 416.204 106.394 418.761 111.103L432.672 106.828Z" fill="#E98862"/>
<path d="M426.236 97.4C426.236 97.4 414.869 95.166 412.259 96.131C409.949 96.986 415.379 100.256 415.379 100.256L426.236 97.4Z" fill="#E98862"/>
<path d="M549.673 158.128C549.66 164.337 550.625 170.509 552.533 176.418C541.977 184.968 529.781 191.261 516.696 194.909C503.612 198.557 489.919 199.483 476.463 197.628C473.923 189.298 481.103 182.668 480.763 154.448C480.753 153.208 480.713 147.208 480.713 147.208L469.313 164.958C468.495 166.491 467.295 167.786 465.828 168.716C464.361 169.647 462.678 170.182 460.943 170.268C460.773 170.268 460.613 170.278 460.453 170.278C458.796 170.278 457.164 169.868 455.704 169.084C454.244 168.301 453 167.169 452.083 165.788L415.973 111.508L432.713 100.378L459.493 140.648L480.513 101.218L480.713 101.318C483.573 96.3481 488.733 93.1381 497.613 92.7581C498.193 92.7281 499.123 92.7081 500.323 92.6881C500.563 97.7581 531.963 97.7381 532.623 92.5681C541.493 92.5781 548.763 95.2981 552.973 99.5081C567.493 114.028 549.673 138.768 549.673 158.128Z" fill="#7C3AED"/>
<path d="M500.322 92.6901C500.561 97.7601 503.322 105.217 511.822 105.78C523.16 106.526 531.954 97.7421 532.617 92.5701H532.59C521.431 92.5701 506.83 92.5891 500.322 92.6901Z" fill="#E98862"/>
<path d="M515.694 89.2859L526.424 92.8779C526.846 93.019 527.293 93.0694 527.736 93.0258C528.179 92.9822 528.608 92.8455 528.994 92.6246C529.381 92.4038 529.716 92.1039 529.979 91.7444C530.241 91.385 530.425 90.9742 530.517 90.5389L535.964 64.9179C536.125 64.1588 536.002 63.367 535.617 62.6933C535.232 62.0197 534.612 61.5112 533.876 61.2649L523.146 57.6739C522.724 57.5327 522.277 57.4823 521.834 57.526C521.391 57.5696 520.963 57.7063 520.576 57.9271C520.19 58.148 519.854 58.4479 519.592 58.8073C519.329 59.1668 519.146 59.5776 519.053 60.0129L513.607 85.6329C513.446 86.3918 513.569 87.1836 513.954 87.8574C514.339 88.5311 514.958 89.0396 515.694 89.2859Z" fill="white"/>
<path d="M530.235 95.925L519.222 97.368C519.222 97.368 509.51 82.134 518.2 71.483C519.2 70.256 521.94 67.735 523.377 69.172C528.146 73.94 526 83.055 526.877 87.726C527.477 85.746 528.469 83.089 529.355 83.339C531.685 84 530.235 93.178 530.235 95.925Z" fill="#E98862"/>
<path d="M517.275 137.952L513.537 90.881L533.574 89.29L535.974 119.574" fill="#7C3AED"/>
<path d="M244.086 256.254C238.356 255.917 228.195 254.976 223.956 252.46C226.105 251.804 228.987 250.733 228.716 249.771C228.005 247.24 218.042 248.814 215.062 248.814L213.977 248.858V261.663C213.977 261.663 233.611 269.025 245.167 259.6C245.461 259.36 245.675 259.036 245.782 258.672C245.89 258.308 245.885 257.919 245.768 257.558C245.651 257.197 245.428 256.879 245.128 256.646C244.828 256.414 244.465 256.277 244.086 256.254Z" fill="#E98862"/>
<path d="M316.167 207.368L304.025 258.34C303.837 259.133 303.83 259.958 304.006 260.754C304.182 261.55 304.536 262.296 305.041 262.936C305.546 263.575 306.19 264.092 306.923 264.448C307.657 264.804 308.461 264.989 309.276 264.989H380.86C382.043 264.989 383.193 264.6 384.133 263.883C385.074 263.166 385.753 262.16 386.066 261.02L400.057 210.049C400.277 209.248 400.309 208.407 400.15 207.591C399.992 206.776 399.647 206.008 399.144 205.347C398.64 204.686 397.991 204.151 397.246 203.782C396.502 203.413 395.682 203.221 394.851 203.221H321.419C320.205 203.221 319.026 203.63 318.074 204.383C317.121 205.135 316.449 206.187 316.167 207.368Z" fill="#9EBCEA"/>
<path d="M278.541 264.989H365.06C365.477 264.989 365.889 264.907 366.274 264.748C366.659 264.588 367.009 264.355 367.303 264.06C367.598 263.765 367.831 263.416 367.991 263.031C368.15 262.646 368.232 262.234 368.232 261.817C368.232 261.4 368.15 260.988 367.991 260.603C367.831 260.218 367.598 259.869 367.303 259.574C367.009 259.28 366.659 259.046 366.274 258.886C365.889 258.727 365.477 258.645 365.06 258.645H278.541C277.7 258.645 276.893 258.979 276.298 259.574C275.703 260.169 275.369 260.976 275.369 261.817C275.369 262.234 275.451 262.646 275.611 263.031C275.77 263.416 276.004 263.765 276.298 264.06C276.593 264.355 276.942 264.588 277.327 264.748C277.712 264.907 278.125 264.989 278.541 264.989Z" fill="#9EBCEA"/>
<path d="M354.972 242.068C359.647 242.068 363.438 238.278 363.438 233.602C363.438 228.926 359.647 225.136 354.972 225.136C350.296 225.136 346.506 228.926 346.506 233.602C346.506 238.278 350.296 242.068 354.972 242.068Z" fill="white"/>
<path d="M412.5 161L387.5 181L429 177.5C420.294 170.089 416.574 166.433 412.5 161Z" fill="#585B5E"/>
</g>
<defs>
<clipPath id="clip0_119_490">
<rect width="649.588" height="504.335" fill="white"/>
</clipPath>
</defs>
</svg>
