<svg width="139" height="88" viewBox="0 0 139 88" fill="none" xmlns="http://www.w3.org/2000/svg">
<path d="M70.2207 69C88.7222 69 103.721 54.0015 103.721 35.5C103.721 16.9985 88.7222 2 70.2207 2C51.7192 2 36.7207 16.9985 36.7207 35.5C36.7207 54.0015 51.7192 69 70.2207 69Z" stroke="#7C3AED" stroke-width="2.5"/>
<path d="M64.8528 61.4939C66.6115 61.8185 68.4008 61.9872 70.2207 62C84.8562 62 96.7207 50.1355 96.7207 35.5C96.7207 20.8645 84.8562 9 70.2207 9C66.4611 9 62.8843 9.78293 59.6445 11.1946C54.0145 13.6479 49.4023 17.9999 46.6167 23.4419C44.7652 27.0589 43.7207 31.1575 43.7207 35.5C43.7207 39.44 44.5806 43.1792 46.1228 46.5401C47.2239 48.9396 48.6728 51.1463 50.405 53.0956" stroke="#7C3AED" stroke-width="2.5" stroke-linecap="round"/>
<path d="M53.5176 56.0747C55.6657 57.8207 58.0925 59.237 60.721 60.2466" stroke="#7C3AED" stroke-width="2.5" stroke-linecap="round"/>
<path d="M97.7207 62L103.721 68" stroke="#7C3AED" stroke-width="2.5"/>
<path fill-rule="evenodd" clip-rule="evenodd" d="M102.752 67.0303C100.859 68.923 100.859 71.9917 102.752 73.8844L113.837 84.9697C115.73 86.8625 118.798 86.8625 120.691 84.9697C122.584 83.077 122.584 80.0083 120.691 78.1156L109.606 67.0303C107.713 65.1376 104.644 65.1376 102.752 67.0303Z" fill="#7C3AED" fill-opacity="0.18" stroke="#7C3AED" stroke-width="2.5"/>
<path d="M107.721 69L118.721 80" stroke="#7C3AED" stroke-width="2.5" stroke-linecap="round"/>
<path fill-rule="evenodd" clip-rule="evenodd" d="M63.7212 24C63.7212 35.598 73.1232 45 84.7212 45C86.9996 45 89.1932 44.6372 91.2474 43.9662C87.8944 52.2871 79.7437 58.1607 70.2212 58.1607C57.7061 58.1607 47.5605 48.0152 47.5605 35.5C47.5605 24.1596 55.8909 14.7648 66.7662 13.1011C64.8342 16.2793 63.7212 20.0097 63.7212 24Z" fill="#7C3AED" fill-opacity="0.18"/>
<path d="M70.7207 17C69.4473 17 68.2032 17.1253 67 17.3642M63.3655 18.4761C56.5246 21.3508 51.7207 28.1144 51.7207 36" stroke="#7C3AED" stroke-width="2.5" stroke-linecap="round"/>
<path d="M123.896 35.7773H115.721M130.221 28H113.045H130.221ZM137.221 28H135H137.221Z" stroke="#7C3AED" stroke-width="2.5" stroke-linecap="round" stroke-linejoin="round"/>
<path d="M33.897 57.7773H25.7212M29.2212 49H12.0454H29.2212ZM6.22119 49H2H6.22119Z" stroke="#7C3AED" stroke-width="2.5" stroke-linecap="round" stroke-linejoin="round"/>
</svg>
