<svg width="96" height="98" viewBox="0 0 96 98" fill="none" xmlns="http://www.w3.org/2000/svg">
<path d="M81.5 44V35.5C81.3157 34.5429 81.0949 34.1064 80.5 33.5C79.8669 32.8542 79.3995 32.6175 78.5 32.5H37C35.7826 32.3167 35.2838 31.8905 35 30.5C34.8885 28.996 34.7316 28.1449 34.5 26.5C33.677 25.145 33.0319 24.5848 31.5 24H5H3.5C2.00489 24.2037 1.46532 24.7626 1 26.5V27.5V90V92.5L1.5 94M81.5 44H92C93.3571 44.0954 93.7382 44.6901 94 46.5C94.0744 47.8694 94.0277 48.6306 94 50C94 50 86.991 76.5122 82.5 93.5C81.9458 95.1341 81.5021 95.7953 80 96.5H79H5H4C2.67817 96.2598 2.13251 95.6746 1.5 94M81.5 44H17L16 44.5L15 46L14.5 47.5L1.5 94M58 15L49 24" stroke="#7C3AED" stroke-width="2"/>
<path d="M49 15L58 24" stroke="#7C3AED" stroke-width="2"/>
<circle cx="42" cy="4.5" r="3.5" stroke="#7C3AED" stroke-width="2"/>
<circle cx="72.5" cy="20" r="2" stroke="#7C3AED" stroke-width="2"/>
<path fill-rule="evenodd" clip-rule="evenodd" d="M81.4793 84.3512C78.0357 85.4206 74.35 86 70.5184 86C51.4646 86 36.0184 71.6731 36.0184 54C36.0184 51.5955 36.3043 49.253 36.8463 47H20.4329C19.3283 47 18.1861 47.8607 17.8816 48.9225L5.79386 91.0775C5.4894 92.1393 6.13802 93 7.24259 93H76.9993C78.1038 93 79.2461 92.1393 79.5506 91.0775L81.4793 84.3512Z" fill="#2F2344"/>
<path d="M4.01674 30.8111V76L12.2192 45.1087C13.3928 42.7724 14.286 41.933 16.3288 41.3804L79 41.1556V38.9778C79 37.1196 78.5 35.7111 76.7176 35.7111H32.8564C32.5 30.1957 31.5 27.5326 30 27L5.58981 27C4.48626 27.2643 3.89033 28.1001 4.01674 30.8111Z" fill="#2F2344"/>
</svg>
