<svg width="137" height="139" viewBox="0 0 137 139" fill="none" xmlns="http://www.w3.org/2000/svg">
<path d="M21.2783 125.123L17.2081 125.695C15.0205 126.002 12.9978 124.478 12.6904 122.291L1.55653 43.0691C1.24908 40.8815 2.77327 38.8588 4.96091 38.5513L83.1921 27.5567C85.3797 27.2492 87.4024 28.7734 87.7098 30.961C87.7098 30.961 88.4217 36.0264 88.6666 37.7688" stroke="#7C3AED" stroke-width="2.5" stroke-linecap="round"/>
<path d="M89.5 42.3796L90 45.5" stroke="#7C3AED" stroke-width="2.5" stroke-linecap="round"/>
<path d="M37.8455 44.0409L116.413 52.2987C117.923 52.4574 119.019 53.8106 118.86 55.321L110.498 134.883C110.339 136.393 108.986 137.489 107.476 137.33L28.9083 129.073C27.3978 128.914 26.3021 127.561 26.4608 126.05L34.8231 46.4884C34.9818 44.9779 36.335 43.8821 37.8455 44.0409Z" stroke="#7C3AED" stroke-width="2.5"/>
<path fill-rule="evenodd" clip-rule="evenodd" d="M44.7409 95.8777L54.5383 89.2697C56.172 88.1679 58.3647 88.4199 59.7057 89.8636L66.8794 97.5866C67.2374 97.9721 67.8329 98.0142 68.2416 97.683L83.5814 85.2534C85.4292 83.7561 88.1675 84.1922 89.4587 86.1894L99.4396 101.627L100.873 104.019L100.187 112.143C100.139 112.704 99.6388 113.115 99.0797 113.053L42.117 106.724C41.5753 106.664 41.1816 106.181 41.2316 105.639L41.9865 97.4401L44.7409 95.8777Z" fill="#7C3AED" fill-opacity="0.18"/>
<path d="M44.8607 53.8279L107.516 60.4131C108.477 60.5142 109.174 61.3753 109.073 62.3365L103.533 115.046C103.432 116.007 102.571 116.705 101.61 116.604L38.9549 110.018C37.9937 109.917 37.2963 109.056 37.3974 108.095L42.9374 55.3853C43.0384 54.4241 43.8995 53.7268 44.8607 53.8279Z" stroke="#7C3AED" stroke-width="2.5"/>
<circle cx="57.0333" cy="71.9495" r="6" transform="rotate(6 57.0333 71.9495)" stroke="#7C3AED" stroke-width="2.5"/>
<path d="M42.7303 97.4249C46.6666 94.7065 54.5394 89.2698 54.5394 89.2698C56.1731 88.168 58.3658 88.42 59.7068 89.8637L66.8805 97.5867C67.2385 97.9722 67.834 98.0143 68.2427 97.6831L83.5825 85.2535C85.2989 83.8627 87.8178 84.1267 89.2086 85.8431C89.2984 85.954 89.3823 86.0696 89.4598 86.1895C89.4598 86.1895 98.4283 100.42 100.524 103.746" stroke="#7C3AED" stroke-width="2.5" stroke-linecap="round"/>
<path d="M125.656 14.3945C122.281 13.935 120.055 14.3381 115.706 15.8931L115.076 16.2141L114.909 15.1086C114.83 10.8074 114.204 8.8133 112.151 5.80053C109.08 2.83235 106.973 2.19799 102.64 2.71036C98.3848 4.86848 96.7469 7.03421 94.8065 12.2569C93.838 16.8446 93.7831 19.5895 94.427 24.7512L97.4122 43.0703L116.349 38.1829C120.774 36.7095 123.19 35.6662 126.905 33.2011C130.888 29.3543 132.033 27.0887 132.361 22.882C131.232 18.0743 129.8 16.1201 125.656 14.3945Z" stroke="#7C3AED" stroke-width="1.5"/>
<path d="M119.771 19.0813C117.409 18.7598 115.849 19.0426 112.804 20.1328L112.363 20.3578L112.246 19.5832C112.191 16.5696 111.754 15.1726 110.316 13.062C108.167 10.9829 106.691 10.5387 103.657 10.8984C100.677 12.4111 99.5299 13.9288 98.1704 17.5883C97.4915 20.8028 97.4527 22.726 97.9028 26.3424L99.9902 39.177L113.251 35.7498C116.35 34.7168 118.042 33.9855 120.643 32.2578C123.433 29.5619 124.235 27.9743 124.465 25.0269C123.675 21.6586 122.673 20.2896 119.771 19.0813Z" fill="#2F2344"/>
</svg>
