<svg width="102" height="25" viewBox="0 0 102 25" fill="none" xmlns="http://www.w3.org/2000/svg">
<path d="M0.258563 18.5V17.588L3.35456 17.228H3.88256L6.95456 17.588V18.5H0.258563ZM2.41856 18.5C2.45056 17.7 2.46656 16.892 2.46656 16.076C2.48256 15.26 2.49056 14.428 2.49056 13.58C2.49056 12.716 2.49056 11.868 2.49056 11.036V9.884C2.49056 9.052 2.49056 8.22 2.49056 7.388C2.49056 6.54 2.48256 5.7 2.46656 4.868C2.46656 4.036 2.45056 3.22 2.41856 2.42H4.79456C4.77856 3.236 4.76256 4.06 4.74656 4.892C4.73056 5.708 4.72256 6.548 4.72256 7.412C4.72256 8.26 4.72256 9.148 4.72256 10.076V10.82C4.72256 11.716 4.72256 12.604 4.72256 13.484C4.72256 14.348 4.73056 15.196 4.74656 16.028C4.76256 16.86 4.77856 17.684 4.79456 18.5H2.41856ZM12.6426 18.74C11.8906 18.74 11.3306 18.628 10.9626 18.404C10.5946 18.18 10.3306 17.78 10.1706 17.204L9.13856 13.364C8.97856 12.708 8.76256 12.22 8.49056 11.9C8.21856 11.564 7.87456 11.34 7.45856 11.228C7.04256 11.116 6.50656 11.06 5.85056 11.06H3.59456V10.028H6.57056C7.41856 10.028 8.12256 9.884 8.68256 9.596C9.24256 9.292 9.65856 8.884 9.93056 8.372C10.2026 7.86 10.3386 7.284 10.3386 6.644C10.3386 5.62 10.0586 4.836 9.49856 4.292C8.93856 3.748 8.05056 3.476 6.83456 3.476H3.59456V2.42H6.90656C8.71456 2.42 10.1226 2.788 11.1306 3.524C12.1546 4.26 12.6666 5.292 12.6666 6.62C12.6666 7.292 12.4826 7.94 12.1146 8.564C11.7626 9.172 11.2186 9.676 10.4826 10.076C9.76256 10.476 8.85856 10.716 7.77056 10.796V10.628C8.25056 10.644 8.68256 10.716 9.06656 10.844C9.46656 10.972 9.81056 11.164 10.0986 11.42C10.4026 11.66 10.6586 11.972 10.8666 12.356C11.0906 12.74 11.2906 13.204 11.4666 13.748L12.6906 17.78L11.8746 17.3L14.4186 17.588V18.5C14.2586 18.548 14.0826 18.588 13.8906 18.62C13.7146 18.652 13.5226 18.676 13.3146 18.692C13.1226 18.724 12.8986 18.74 12.6426 18.74ZM0.258563 3.332V2.42H3.64256V3.692H3.35456L0.258563 3.332ZM19.0136 18.812C18.1336 18.812 17.3816 18.564 16.7576 18.068C16.1336 17.572 15.8216 16.828 15.8216 15.836C15.8216 15.372 15.9176 14.94 16.1096 14.54C16.3176 14.124 16.7016 13.732 17.2616 13.364C17.8376 12.98 18.6696 12.628 19.7576 12.308C20.1576 12.18 20.5576 12.06 20.9576 11.948C21.3736 11.82 21.7816 11.7 22.1816 11.588C22.5976 11.46 23.0216 11.34 23.4536 11.228V12.044C22.8936 12.22 22.3496 12.396 21.8216 12.572C21.2936 12.748 20.7816 12.916 20.2856 13.076C19.5656 13.3 19.0376 13.556 18.7016 13.844C18.3816 14.132 18.1736 14.42 18.0776 14.708C17.9816 14.98 17.9336 15.244 17.9336 15.5C17.9336 16.124 18.1096 16.58 18.4616 16.868C18.8296 17.14 19.2856 17.276 19.8296 17.276C20.1176 17.276 20.3816 17.236 20.6216 17.156C20.8776 17.06 21.1976 16.892 21.5816 16.652C21.9656 16.396 22.4696 16.028 23.0936 15.548L23.4056 16.724H22.6856C22.2216 17.204 21.7976 17.596 21.4136 17.9C21.0456 18.204 20.6696 18.428 20.2856 18.572C19.9176 18.732 19.4936 18.812 19.0136 18.812ZM24.6296 18.74C23.9736 18.74 23.4456 18.524 23.0456 18.092C22.6616 17.66 22.4696 17.084 22.4696 16.364V16.244V10.82C22.4696 10.036 22.3896 9.436 22.2296 9.02C22.0856 8.604 21.8456 8.316 21.5096 8.156C21.1736 7.98 20.7416 7.892 20.2136 7.892C19.9416 7.892 19.6296 7.924 19.2776 7.988C18.9416 8.052 18.5416 8.164 18.0776 8.324L19.0616 7.604L18.4856 9.62C18.3736 9.988 18.2136 10.268 18.0056 10.46C17.8136 10.652 17.5656 10.748 17.2616 10.748C16.9256 10.748 16.6616 10.668 16.4696 10.508C16.2936 10.332 16.1896 10.092 16.1576 9.788C16.3656 8.892 16.8856 8.18 17.7176 7.652C18.5496 7.108 19.5656 6.836 20.7656 6.836C21.5976 6.836 22.2856 6.98 22.8296 7.268C23.3736 7.54 23.7736 7.98 24.0296 8.588C24.3016 9.196 24.4376 9.996 24.4376 10.988V16.124C24.4376 16.636 24.5176 16.996 24.6776 17.204C24.8376 17.412 25.0456 17.516 25.3016 17.516C25.5096 17.516 25.6856 17.468 25.8296 17.372C25.9736 17.276 26.1096 17.148 26.2376 16.988L26.6936 17.468C26.4216 17.932 26.1176 18.26 25.7816 18.452C25.4456 18.644 25.0616 18.74 24.6296 18.74ZM32.7405 18.812C31.7805 18.812 30.9325 18.572 30.1965 18.092C29.4765 17.596 28.9085 16.908 28.4925 16.028C28.0925 15.148 27.8925 14.124 27.8925 12.956C27.8925 11.724 28.1165 10.652 28.5645 9.74C29.0125 8.828 29.6125 8.116 30.3645 7.604C31.1325 7.092 31.9965 6.836 32.9565 6.836C33.3725 6.836 33.7725 6.9 34.1565 7.028C34.5405 7.156 34.9165 7.364 35.2845 7.652C35.6685 7.924 36.0445 8.316 36.4125 8.828H36.7485L36.5325 9.908C35.8445 9.236 35.2525 8.78 34.7565 8.54C34.2765 8.3 33.7885 8.18 33.2925 8.18C32.7165 8.18 32.1725 8.348 31.6605 8.684C31.1645 9.004 30.7645 9.516 30.4605 10.22C30.1565 10.908 30.0045 11.804 30.0045 12.908C30.0045 13.948 30.1485 14.812 30.4365 15.5C30.7245 16.172 31.1165 16.676 31.6125 17.012C32.1245 17.332 32.6925 17.492 33.3165 17.492C33.9405 17.492 34.4845 17.34 34.9485 17.036C35.4285 16.716 35.9405 16.212 36.4845 15.524L36.6765 16.604H36.3885C36.1005 17.068 35.7805 17.468 35.4285 17.804C35.0765 18.124 34.6765 18.372 34.2285 18.548C33.7805 18.724 33.2845 18.812 32.7405 18.812ZM36.2445 18.74L36.0285 16.34V16.292V9.26L36.1005 8.972V2.852L34.0845 2.588V1.796L37.7805 0.74L38.0925 0.931999L37.9965 4.484V17.396L39.9165 17.684V18.5L36.2445 18.74ZM45.9514 18.86C45.0554 18.86 44.1994 18.74 43.3834 18.5C42.5674 18.244 41.8794 17.94 41.3194 17.588L41.4634 14.204H42.8554L43.5034 17.948L41.9674 17.3V16.22C42.4634 16.556 42.9034 16.844 43.2874 17.084C43.6874 17.308 44.0874 17.476 44.4874 17.588C44.8874 17.684 45.3514 17.732 45.8794 17.732C46.6314 17.732 47.2874 17.62 47.8474 17.396C48.4074 17.172 48.8394 16.836 49.1434 16.388C49.4474 15.94 49.5994 15.396 49.5994 14.756C49.5994 14.228 49.4874 13.788 49.2634 13.436C49.0554 13.068 48.7354 12.748 48.3034 12.476C47.8714 12.204 47.3194 11.94 46.6474 11.684L45.7114 11.3C44.9114 10.98 44.1994 10.604 43.5754 10.172C42.9674 9.74 42.4874 9.22 42.1354 8.612C41.7994 8.004 41.6314 7.292 41.6314 6.476C41.6314 5.548 41.8634 4.756 42.3274 4.1C42.7914 3.444 43.4234 2.94 44.2234 2.588C45.0394 2.236 45.9514 2.06 46.9594 2.06C47.7594 2.06 48.4794 2.172 49.1194 2.396C49.7754 2.62 50.3594 2.916 50.8714 3.284L50.7274 6.476H49.3834L48.6634 2.804L50.1754 3.572L50.1994 4.724C49.6074 4.148 49.0554 3.748 48.5434 3.524C48.0314 3.3 47.4634 3.188 46.8394 3.188C46.2314 3.188 45.6794 3.292 45.1834 3.5C44.7034 3.708 44.3114 4.02 44.0074 4.436C43.7194 4.836 43.5754 5.34 43.5754 5.948C43.5754 6.46 43.6874 6.908 43.9114 7.292C44.1354 7.676 44.4474 8.012 44.8474 8.3C45.2634 8.588 45.7514 8.844 46.3114 9.068L47.2714 9.428C48.2794 9.828 49.1034 10.26 49.7434 10.724C50.3834 11.188 50.8474 11.708 51.1354 12.284C51.4394 12.844 51.5914 13.516 51.5914 14.3C51.5914 15.244 51.3514 16.06 50.8714 16.748C50.3914 17.42 49.7274 17.94 48.8794 18.308C48.0474 18.676 47.0714 18.86 45.9514 18.86ZM53.4829 18.5V17.684L56.0749 17.228H56.6269L59.0029 17.684V18.5H53.4829ZM55.2349 18.5C55.2509 18.132 55.2589 17.652 55.2589 17.06C55.2749 16.452 55.2829 15.828 55.2829 15.188C55.2989 14.532 55.3069 13.956 55.3069 13.46V12.308C55.3069 11.86 55.2989 11.476 55.2829 11.156C55.2829 10.82 55.2749 10.508 55.2589 10.22C55.2589 9.916 55.2509 9.604 55.2349 9.284L53.3629 9.068V8.276L56.6989 6.836L57.0589 7.076L57.2989 9.812V9.86V13.46C57.2989 13.956 57.2989 14.532 57.2989 15.188C57.3149 15.828 57.3309 16.452 57.3469 17.06C57.3629 17.652 57.3789 18.132 57.3949 18.5H55.2349ZM60.7549 18.5V17.684L63.3229 17.228H63.8749L66.2509 17.684V18.5H60.7549ZM62.4829 18.5C62.4989 18.132 62.5069 17.652 62.5069 17.06C62.5229 16.468 62.5309 15.852 62.5309 15.212C62.5469 14.556 62.5549 13.972 62.5549 13.46V11.396C62.5549 10.292 62.4029 9.54 62.0989 9.14C61.7949 8.724 61.2909 8.516 60.5869 8.516C60.2029 8.516 59.8189 8.572 59.4349 8.684C59.0669 8.796 58.6909 8.98 58.3069 9.236C57.9389 9.476 57.5309 9.796 57.0829 10.196L56.7709 9.332H56.9629C57.3469 8.852 57.7869 8.428 58.2829 8.06C58.7949 7.692 59.3229 7.396 59.8669 7.172C60.4269 6.948 60.9709 6.836 61.4989 6.836C62.5229 6.836 63.2829 7.18 63.7789 7.868C64.2909 8.556 64.5469 9.676 64.5469 11.228V13.46C64.5469 13.972 64.5469 14.556 64.5469 15.212C64.5629 15.852 64.5709 16.468 64.5709 17.06C64.5869 17.652 64.6029 18.132 64.6189 18.5H62.4829ZM71.2089 18.812C70.3289 18.812 69.5769 18.564 68.9529 18.068C68.3289 17.572 68.0169 16.828 68.0169 15.836C68.0169 15.372 68.1129 14.94 68.3049 14.54C68.5129 14.124 68.8969 13.732 69.4569 13.364C70.0329 12.98 70.8649 12.628 71.9529 12.308C72.3529 12.18 72.7529 12.06 73.1529 11.948C73.5689 11.82 73.9769 11.7 74.3769 11.588C74.7929 11.46 75.2169 11.34 75.6489 11.228V12.044C75.0889 12.22 74.5449 12.396 74.0169 12.572C73.4889 12.748 72.9769 12.916 72.4809 13.076C71.7609 13.3 71.2329 13.556 70.8969 13.844C70.5769 14.132 70.3689 14.42 70.2729 14.708C70.1769 14.98 70.1289 15.244 70.1289 15.5C70.1289 16.124 70.3049 16.58 70.6569 16.868C71.0249 17.14 71.4809 17.276 72.0249 17.276C72.3129 17.276 72.5769 17.236 72.8169 17.156C73.0729 17.06 73.3929 16.892 73.7769 16.652C74.1609 16.396 74.6649 16.028 75.2889 15.548L75.6009 16.724H74.8809C74.4169 17.204 73.9929 17.596 73.6089 17.9C73.2409 18.204 72.8649 18.428 72.4809 18.572C72.1129 18.732 71.6889 18.812 71.2089 18.812ZM76.8249 18.74C76.1689 18.74 75.6409 18.524 75.2409 18.092C74.8569 17.66 74.6649 17.084 74.6649 16.364V16.244V10.82C74.6649 10.036 74.5849 9.436 74.4249 9.02C74.2809 8.604 74.0409 8.316 73.7049 8.156C73.3689 7.98 72.9369 7.892 72.4089 7.892C72.1369 7.892 71.8249 7.924 71.4729 7.988C71.1369 8.052 70.7369 8.164 70.2729 8.324L71.2569 7.604L70.6809 9.62C70.5689 9.988 70.4089 10.268 70.2009 10.46C70.0089 10.652 69.7609 10.748 69.4569 10.748C69.1209 10.748 68.8569 10.668 68.6649 10.508C68.4889 10.332 68.3849 10.092 68.3529 9.788C68.5609 8.892 69.0809 8.18 69.9129 7.652C70.7449 7.108 71.7609 6.836 72.9609 6.836C73.7929 6.836 74.4809 6.98 75.0249 7.268C75.5689 7.54 75.9689 7.98 76.2249 8.588C76.4969 9.196 76.6329 9.996 76.6329 10.988V16.124C76.6329 16.636 76.7129 16.996 76.8729 17.204C77.0329 17.412 77.2409 17.516 77.4969 17.516C77.7049 17.516 77.8809 17.468 78.0249 17.372C78.1689 17.276 78.3049 17.148 78.4329 16.988L78.8889 17.468C78.6169 17.932 78.3129 18.26 77.9769 18.452C77.6409 18.644 77.2569 18.74 76.8249 18.74ZM79.4025 24.308V23.492L82.0425 23.036H82.6185L85.4745 23.492V24.308H79.4025ZM81.2745 24.308C81.2905 23.748 81.2985 23.188 81.2985 22.628C81.3145 22.068 81.3225 21.5 81.3225 20.924C81.3385 20.348 81.3465 19.78 81.3465 19.22V12.308C81.3465 11.86 81.3385 11.476 81.3225 11.156C81.3225 10.82 81.3145 10.508 81.2985 10.22C81.2985 9.916 81.2905 9.604 81.2745 9.284L79.4025 9.068V8.276L82.7385 6.836L83.0985 7.076L83.2665 9.116L83.3385 9.188V16.628L83.2905 16.772V19.196C83.2905 19.74 83.2905 20.3 83.2905 20.876C83.3065 21.468 83.3145 22.044 83.3145 22.604C83.3305 23.18 83.3465 23.748 83.3625 24.308H81.2745ZM86.4585 18.812C86.0265 18.812 85.6025 18.74 85.1865 18.596C84.7705 18.468 84.3545 18.236 83.9385 17.9C83.5225 17.564 83.1305 17.1 82.7625 16.508H82.2825L82.4985 15.308C83.1065 16.092 83.6905 16.652 84.2505 16.988C84.8265 17.324 85.4105 17.492 86.0025 17.492C86.6105 17.492 87.1545 17.332 87.6345 17.012C88.1305 16.676 88.5225 16.172 88.8105 15.5C89.1145 14.828 89.2665 13.98 89.2665 12.956C89.2665 11.404 88.9785 10.22 88.4025 9.404C87.8425 8.572 87.1225 8.156 86.2425 8.156C85.9225 8.156 85.5705 8.228 85.1865 8.372C84.8185 8.5 84.4105 8.724 83.9625 9.044C83.5305 9.348 83.0425 9.772 82.4985 10.316L82.2825 9.212H82.7625C83.1785 8.668 83.6025 8.228 84.0345 7.892C84.4825 7.54 84.9305 7.276 85.3785 7.1C85.8425 6.924 86.3225 6.836 86.8185 6.836C87.6665 6.836 88.4345 7.076 89.1225 7.556C89.8105 8.036 90.3545 8.716 90.7545 9.596C91.1705 10.476 91.3785 11.532 91.3785 12.764C91.3785 14.012 91.1625 15.084 90.7305 15.98C90.2985 16.876 89.7145 17.572 88.9785 18.068C88.2425 18.564 87.4025 18.812 86.4585 18.812ZM97.2369 18.812C96.5649 18.812 95.9489 18.732 95.3889 18.572C94.8449 18.428 94.2769 18.204 93.6849 17.9L93.6129 15.236H94.8369L95.4849 18.116H94.5249V16.94C94.9249 17.228 95.3489 17.444 95.7969 17.588C96.2449 17.732 96.7409 17.804 97.2849 17.804C97.8769 17.804 98.3729 17.724 98.7729 17.564C99.1729 17.404 99.4689 17.18 99.6609 16.892C99.8529 16.604 99.9489 16.284 99.9489 15.932C99.9489 15.404 99.7569 14.988 99.3729 14.684C99.0049 14.364 98.4449 14.076 97.6929 13.82L96.6369 13.436C96.0769 13.212 95.5729 12.956 95.1249 12.668C94.6929 12.38 94.3569 12.036 94.1169 11.636C93.8769 11.236 93.7569 10.756 93.7569 10.196C93.7569 9.604 93.9089 9.06 94.2129 8.564C94.5329 8.052 94.9969 7.636 95.6049 7.316C96.2289 6.996 96.9889 6.836 97.8849 6.836C98.5249 6.836 99.1089 6.924 99.6369 7.1C100.165 7.26 100.685 7.5 101.197 7.82L101.101 10.292H99.9489L99.4209 7.796H100.309V8.78C99.9249 8.476 99.5249 8.252 99.1089 8.108C98.7089 7.964 98.2929 7.892 97.8609 7.892C97.1249 7.892 96.5649 8.044 96.1809 8.348C95.7969 8.652 95.6049 9.052 95.6049 9.548C95.6049 10.092 95.7729 10.508 96.1089 10.796C96.4609 11.068 97.0289 11.348 97.8129 11.636L98.5569 11.9C99.3249 12.188 99.9489 12.508 100.429 12.86C100.925 13.212 101.277 13.596 101.485 14.012C101.709 14.412 101.821 14.876 101.821 15.404C101.821 16.012 101.645 16.572 101.293 17.084C100.957 17.596 100.453 18.012 99.7809 18.332C99.1089 18.652 98.2609 18.812 97.2369 18.812Z" fill="black"/>
</svg>
